<svg width="12" height="25" viewBox="0 0 12 25" fill="none" xmlns="http://www.w3.org/2000/svg">
<path d="M5.31523 15.8C3.9819 15.8 2.7819 16.3167 1.71523 17.35C0.648568 18.3833 0.115234 19.5667 0.115234 20.9C0.115234 21.8667 0.431901 22.6667 1.06523 23.3C1.69857 23.9 2.51523 24.2 3.51523 24.2C4.84857 24.2 6.04857 23.6833 7.11523 22.65C8.1819 21.6167 8.71523 20.45 8.71523 19.15C8.71523 18.1833 8.39857 17.3833 7.76523 16.75C7.1319 16.1167 6.31523 15.8 5.31523 15.8ZM6.71523 9.25C8.01523 9.25 9.19857 8.73333 10.2652 7.7C11.3319 6.66667 11.8652 5.5 11.8652 4.2C11.8652 3.23333 11.5486 2.43333 10.9152 1.8C10.2819 1.16667 9.46523 0.849999 8.46523 0.849999C7.16523 0.849999 5.9819 1.36667 4.91523 2.4C3.84857 3.43333 3.31523 4.61667 3.31523 5.95C3.31523 6.91667 3.6319 7.71667 4.26523 8.35C4.89857 8.95 5.71523 9.25 6.71523 9.25Z" fill="#261E19"/>
</svg>
